<?xml version="1.0" encoding="UTF-8" standalone="no"?>
<!-- Created with Inkscape (http://www.inkscape.org/) -->

<svg
   width="197.21216"
   height="137.42822"
   viewBox="0 0 52.179049 36.361217"
   version="1.1"
   id="svg1"
   xmlns="http://www.w3.org/2000/svg"
   xmlns:svg="http://www.w3.org/2000/svg">
  <defs
     id="defs1">
    <filter
       style="color-interpolation-filters:sRGB"
       id="filter158"
       x="-0.085371766"
       y="-0.1323404"
       width="1.1707414"
       height="1.2646808">
      <feFlood
         result="flood"
         in="SourceGraphic"
         flood-opacity="0.498039"
         flood-color="rgb(26,26,26)"
         id="feFlood156" />
      <feGaussianBlur
         result="blur"
         in="SourceGraphic"
         stdDeviation="0.500000"
         id="feGaussianBlur156" />
      <feOffset
         result="offset"
         in="blur"
         dx="0.000000"
         dy="0.000000"
         id="feOffset156" />
      <feComposite
         result="comp1"
         operator="in"
         in="flood"
         in2="offset"
         id="feComposite157" />
      <feComposite
         result="comp2"
         operator="over"
         in="SourceGraphic"
         in2="comp1"
         id="feComposite158" />
    </filter>
  </defs>
  <g
     id="g62-1-9-8-65-0"
     transform="matrix(1.6848512,0,0,1.6848512,-24.72519,-103.62888)"
     style="stroke:#ededed;stroke-opacity:1;filter:url(#filter158)">
    <path
       d="m 30.156811,63.764586 a 13.229167,13.229167 0 0 0 -8.63668,3.208073 10.583333,10.583333 0 0 1 6.23218,2.084628 2.9104166,2.9104166 0 0 1 2.4076,-1.274858 2.9104166,2.9104166 0 0 1 2.35955,1.207162 c 1.7161,-1.354676 3.80697,-2.142595 5.9831,-2.260844 a 13.229167,13.229167 0 0 0 -6.97012,-2.892847 13.229167,13.229167 0 0 0 -1.37563,-0.07131 z"
       style="font-variation-settings:'wght' 600;fill:none;fill-opacity:0.299229;stroke:#ededed;stroke-width:2.11667;stroke-linejoin:round;stroke-opacity:1"
       id="path55-60-8-9-7-5-4-3-2-8" />
    <path
       d="m 39.076681,66.713244 c -0.19197,2e-6 -0.38327,0.0051 -0.57412,0.0155 -2.17613,0.118249 -4.267,0.906168 -5.9831,2.260844 a 2.9104166,2.9104166 0 0 1 0.55087,1.703255 2.9104166,2.9104166 0 0 1 -0.15813,0.945162 10.583333,10.583333 0 0 0 1.00821,0.146761 c 0.3385,0.03281 0.67901,0.0496 1.02061,0.04961 a 10.583333,10.583333 0 0 0 0.008,0 c 1.63028,-0.0012 3.36929,-0.415863 4.84983,-1.18029 a 10.583333,10.583333 0 0 0 0.0331,-0.0186 c 0.48282,-0.251557 0.92798,-0.53174 1.34928,-0.839225 a 10.583333,10.583333 0 0 0 0.0527,-0.03566 10.583333,10.583333 0 0 0 2.15232,-2.130619 c -1.35622,-0.604492 -2.82447,-0.916839 -4.3093,-0.91674 z"
       style="font-variation-settings:'wght' 600;fill:none;fill-opacity:0.299229;stroke:#ededed;stroke-width:2.11667;stroke-linejoin:round;stroke-opacity:1"
       id="path54-9-7-7-1-9-8-8-6-6" />
    <path
       d="m 30.159911,67.782429 a 2.9104166,2.9104166 0 0 0 -2.4076,1.274858 10.583333,10.583333 0 0 1 0.3607,0.280086 10.583333,10.583333 0 0 0 0.15968,0.132292 10.583333,10.583333 0 0 0 1.88722,1.223181 10.583333,10.583333 0 0 0 2.75229,0.945162 2.9104166,2.9104166 0 0 0 0.15813,-0.945162 2.9104166,2.9104166 0 0 0 -0.55087,-1.703255 2.9104166,2.9104166 0 0 0 -2.35955,-1.207162 z"
       style="font-variation-settings:'wght' 600;fill:none;fill-opacity:0.299229;stroke:#ededed;stroke-width:2.117;stroke-linejoin:round;stroke-dasharray:none;stroke-opacity:1"
       id="path53-75-4-9-2-4-1-0-5-2" />
    <path
       d="m 21.445201,66.972659 a 10.583333,10.583333 0 0 0 -4.51187,1.009758 13.229167,13.229167 0 0 0 0.88935,4.313948 13.229167,13.229167 0 0 0 3.69745,5.324223 13.229167,13.229167 0 0 0 8.63668,3.20859 13.229167,13.229167 0 0 0 1.37563,-0.07131 13.229167,13.229167 0 0 0 9.70122,-5.924703 13.229167,13.229167 0 0 0 1.29087,-2.536279 13.229167,13.229167 0 0 0 0.86145,-4.666898 10.583333,10.583333 0 0 1 -0.8754,1.017509 c -0.002,0.0022 -0.004,0.0045 -0.006,0.0067 -0.39972,0.408351 -0.81937,0.775891 -1.26917,1.10846 -0.0168,0.01245 -0.0373,0.02124 -0.0543,0.03359 a 10.583333,10.583333 0 0 1 -1.34928,0.839225 c -0.005,0.0027 -0.009,0.0061 -0.0145,0.0088 -0.006,0.0032 -0.0123,0.0066 -0.0186,0.0098 a 10.583333,10.583333 0 0 1 -4.85758,1.18029 10.583333,10.583333 0 0 1 -2.02882,-0.19637 10.583333,10.583333 0 0 1 -4.63951,-2.168343 10.583333,10.583333 0 0 1 -0.15968,-0.132292 10.583333,10.583333 0 0 0 -0.3607,-0.280086 10.583333,10.583333 0 0 0 -6.23218,-2.084628 10.583333,10.583333 0 0 0 -0.0749,0 z"
       style="font-variation-settings:'wght' 600;fill:none;fill-opacity:0.299229;stroke:#ededed;stroke-width:2.11667;stroke-linejoin:round;stroke-opacity:1"
       id="path56-7-1-9-2-9-2-4-8-4" />
  </g>
</svg>
